<svg width="67" height="20" viewBox="0 0 67 20" fill="none" xmlns="http://www.w3.org/2000/svg">
<path d="M60.25 10C60.25 9.86193 60.1381 9.75 60 9.75H57.75C57.6119 9.75 57.5 9.86193 57.5 10C57.5 10.1381 57.6119 10.25 57.75 10.25H59.75V12.25C59.75 12.3882 59.8619 12.5 60 12.5C60.1381 12.5 60.25 12.3881 60.25 12.25V10ZM1.94152 3.01426C2.0187 3.12875 2.17407 3.15899 2.28856 3.08181C2.40304 3.00463 2.43329 2.84925 2.35611 2.73477L1.94152 3.01426ZM5.04095 6.20286C4.94985 6.09911 4.79189 6.08885 4.68814 6.17995C4.58438 6.27104 4.57412 6.429 4.66522 6.53276L5.04095 6.20286ZM7.78974 9.69113C7.89251 9.78333 8.05057 9.77476 8.14277 9.67198C8.23497 9.56921 8.2264 9.41115 8.12363 9.31895L7.78974 9.69113ZM11.5558 12.0415C11.4425 11.9625 11.2867 11.9902 11.2077 12.1034C11.1287 12.2167 11.1564 12.3725 11.2696 12.4515L11.5558 12.0415ZM15.0679 14.7616C15.1902 14.8257 15.3413 14.7786 15.4054 14.6563C15.4695 14.534 15.4224 14.3829 15.3001 14.3188L15.0679 14.7616ZM19.301 16.0996C19.1715 16.0516 19.0277 16.1177 18.9797 16.2472C18.9318 16.3767 18.9979 16.5205 19.1274 16.5685L19.301 16.0996ZM23.3846 17.8422C23.5191 17.8733 23.6534 17.7895 23.6845 17.655C23.7157 17.5205 23.6319 17.3862 23.4974 17.3551L23.3846 17.8422ZM27.8213 18.0806C27.684 18.066 27.5608 18.1654 27.5462 18.3027C27.5315 18.44 27.6309 18.5632 27.7682 18.5778L27.8213 18.0806ZM32.6653 18.8229C32.8034 18.8236 32.9159 18.7123 32.9167 18.5742C32.9174 18.4362 32.8061 18.3236 32.668 18.3229L32.6653 18.8229ZM37.9577 18.1073C37.8202 18.1196 37.7187 18.241 37.7309 18.3785C37.7431 18.516 37.8645 18.6176 38.002 18.6054L37.9577 18.1073ZM43.2878 17.8581C43.4233 17.8315 43.5115 17.7 43.4849 17.5646C43.4583 17.4291 43.3268 17.3409 43.1914 17.3675L43.2878 17.8581ZM48.3122 16.0484C48.1808 16.0909 48.1087 16.2318 48.1511 16.3632C48.1935 16.4946 48.3344 16.5667 48.4658 16.5242L48.3122 16.0484ZM53.4408 14.5489C53.5654 14.4892 53.6179 14.3399 53.5583 14.2154C53.4986 14.0909 53.3493 14.0383 53.2248 14.098L53.4408 14.5489ZM57.7878 11.4523C57.6749 11.5317 57.6477 11.6877 57.7272 11.8006C57.8066 11.9135 57.9626 11.9407 58.0755 11.8612L57.7878 11.4523ZM1 1C0.777756 1.11449 0.777769 1.11451 0.777783 1.11454C0.77779 1.11455 0.777805 1.11458 0.777818 1.11461C0.777845 1.11466 0.777877 1.11472 0.777914 1.1148C0.77799 1.11494 0.778088 1.11513 0.778209 1.11537C0.778451 1.11583 0.778784 1.11648 0.779209 1.1173C0.780058 1.11893 0.781273 1.12127 0.782854 1.12429C0.786017 1.13033 0.790645 1.13913 0.796747 1.15061C0.808951 1.17358 0.82705 1.20728 0.851107 1.25114C0.899221 1.33885 0.971173 1.46721 1.06747 1.63163C1.26005 1.96045 1.55005 2.43358 1.94152 3.01426L2.35611 2.73477C1.971 2.16353 1.6866 1.6994 1.49892 1.37894C1.40508 1.21872 1.33544 1.09444 1.28949 1.01067C1.26651 0.968788 1.24946 0.937035 1.23828 0.915983C1.23268 0.905458 1.22856 0.897608 1.22589 0.892505C1.22455 0.889954 1.22358 0.888089 1.22297 0.886921C1.22267 0.886336 1.22246 0.885926 1.22234 0.885691C1.22228 0.885573 1.22224 0.885499 1.22222 0.885469C1.22221 0.885454 1.22221 0.88545 1.22222 0.885457C1.22222 0.88546 1.22222 0.885474 1.22223 0.885476C1.22223 0.885492 1.22224 0.885511 1 1ZM4.66522 6.53276C5.54703 7.53707 6.58616 8.61138 7.78974 9.69113L8.12363 9.31895C6.93622 8.25371 5.91096 7.19374 5.04095 6.20286L4.66522 6.53276ZM11.2696 12.4515C12.4312 13.2621 13.6961 14.0423 15.0679 14.7616L15.3001 14.3188C13.9481 13.6098 12.7011 12.8407 11.5558 12.0415L11.2696 12.4515ZM19.1274 16.5685C20.4662 17.064 21.8846 17.4948 23.3846 17.8422L23.4974 17.3551C22.0185 17.0126 20.6204 16.5879 19.301 16.0996L19.1274 16.5685ZM27.7682 18.5778C28.4921 18.655 29.2319 18.7128 29.9878 18.7497L30.0122 18.2503C29.2658 18.2139 28.5356 18.1568 27.8213 18.0806L27.7682 18.5778ZM29.9878 18.7497C30.902 18.7943 31.7944 18.8181 32.6653 18.8229L32.668 18.3229C31.8044 18.3181 30.9191 18.2945 30.0122 18.2503L29.9878 18.7497ZM38.002 18.6054C39.8885 18.4376 41.6498 18.1802 43.2878 17.8581L43.1914 17.3675C41.5704 17.6862 39.8265 17.9411 37.9577 18.1073L38.002 18.6054ZM48.4658 16.5242C50.359 15.9128 52.0157 15.2317 53.4408 14.5489L53.2248 14.098C51.819 14.7715 50.1831 15.4442 48.3122 16.0484L48.4658 16.5242ZM58.0755 11.8612C58.7763 11.3681 59.2994 10.9492 59.6484 10.6525C59.8229 10.5042 59.9539 10.3863 60.0418 10.305C60.0858 10.2644 60.1189 10.2329 60.1414 10.2113C60.1527 10.2005 60.1612 10.1921 60.1671 10.1863C60.1701 10.1834 60.1723 10.1812 60.1739 10.1796C60.1747 10.1788 60.1754 10.1782 60.1759 10.1777C60.1761 10.1775 60.1763 10.1773 60.1764 10.1771C60.1765 10.177 60.1766 10.177 60.1766 10.1769C60.1767 10.1769 60.1767 10.1769 60.1767 10.1768C60.1767 10.1768 60.1768 10.1768 60 10C59.8232 9.82322 59.8232 9.8232 59.8233 9.82318C59.8233 9.82318 59.8233 9.82316 59.8233 9.82315C59.8233 9.82314 59.8233 9.82313 59.8233 9.82314C59.8233 9.82315 59.8232 9.82321 59.8231 9.8233C59.823 9.82349 59.8226 9.82385 59.8221 9.82437C59.821 9.8254 59.8193 9.82709 59.8169 9.82942C59.8122 9.83408 59.8048 9.84129 59.7947 9.85098C59.7746 9.87035 59.7438 9.89958 59.7023 9.93794C59.6194 10.0147 59.4936 10.1279 59.3246 10.2716C58.9865 10.559 58.4754 10.9685 57.7878 11.4523L58.0755 11.8612ZM60.5 10C60.5 9.72386 60.2761 9.5 60 9.5H55.5C55.2239 9.5 55 9.72386 55 10C55 10.2761 55.2239 10.5 55.5 10.5H59.5V14.5C59.5 14.7761 59.7239 15 60 15C60.2761 15 60.5 14.7761 60.5 14.5V10ZM1.73422 3.15401C1.88859 3.38298 2.19934 3.44346 2.42831 3.2891C2.65728 3.13474 2.71776 2.82399 2.5634 2.59502L1.73422 3.15401ZM5.22881 6.03791C5.04661 5.83041 4.7307 5.80989 4.52319 5.99208C4.31568 6.17428 4.29516 6.4902 4.47736 6.6977L5.22881 6.03791ZM7.6228 9.87722C7.82835 10.0616 8.14446 10.0445 8.32887 9.83892C8.51327 9.63337 8.49612 9.31726 8.29057 9.13286L7.6228 9.87722ZM11.6988 11.8365C11.4724 11.6784 11.1607 11.7339 11.0027 11.9604C10.8446 12.1868 10.9001 12.4985 11.1266 12.6565L11.6988 11.8365ZM14.9518 14.983C15.1964 15.1112 15.4986 15.0169 15.6268 14.7724C15.7551 14.5278 15.6608 14.2256 15.4162 14.0974L14.9518 14.983ZM19.3878 15.8651C19.1288 15.7692 18.8411 15.9015 18.7453 16.1605C18.6494 16.4194 18.7817 16.7071 19.0406 16.8029L19.3878 15.8651ZM23.3282 18.0857C23.5972 18.148 23.8658 17.9804 23.9281 17.7114C23.9904 17.4424 23.8228 17.1738 23.5538 17.1115L23.3282 18.0857ZM27.8478 17.832C27.5732 17.8028 27.3269 18.0016 27.2976 18.2762C27.2683 18.5508 27.4671 18.7971 27.7417 18.8264L27.8478 17.832ZM32.6639 19.0729C32.9401 19.0744 33.1651 18.8517 33.1667 18.5756C33.1682 18.2995 32.9455 18.0744 32.6694 18.0729L32.6639 19.0729ZM37.9356 17.8583C37.6605 17.8828 37.4574 18.1256 37.4819 18.4007C37.5063 18.6757 37.7491 18.8789 38.0242 18.8544L37.9356 17.8583ZM43.3361 18.1034C43.607 18.0501 43.7835 17.7873 43.7302 17.5163C43.6769 17.2454 43.4141 17.0689 43.1431 17.1222L43.3361 18.1034ZM48.2353 15.8105C47.9726 15.8954 47.8283 16.1772 47.9132 16.44C47.9981 16.7028 48.2799 16.847 48.5427 16.7621L48.2353 15.8105ZM53.5489 14.7744C53.7979 14.6551 53.9031 14.3564 53.7838 14.1074C53.6644 13.8584 53.3658 13.7532 53.1168 13.8725L53.5489 14.7744ZM57.6439 11.2478C57.4181 11.4067 57.3638 11.7186 57.5227 11.9444C57.6816 12.1703 57.9935 12.2246 58.2193 12.0657L57.6439 11.2478ZM1 1C0.555513 1.22898 0.555537 1.22902 0.555562 1.22907C0.555572 1.22909 0.555599 1.22915 0.555619 1.22919C0.555661 1.22927 0.555708 1.22936 0.55576 1.22946C0.555866 1.22966 0.555994 1.22991 0.556145 1.2302C0.556447 1.23079 0.556841 1.23155 0.557327 1.23248C0.558297 1.23435 0.559634 1.23692 0.561339 1.24018C0.564748 1.24669 0.569626 1.25597 0.575982 1.26793C0.588694 1.29185 0.607318 1.32652 0.631917 1.37137C0.681113 1.46106 0.754219 1.59146 0.851744 1.75798C1.04678 2.09098 1.33958 2.56861 1.73422 3.15401L2.5634 2.59502C2.18148 2.0285 1.89987 1.56887 1.71464 1.2526C1.62204 1.09448 1.55354 0.972237 1.50868 0.89044C1.48624 0.849543 1.46972 0.818762 1.45904 0.798668C1.4537 0.78862 1.44982 0.781245 1.4474 0.776614C1.44619 0.774298 1.44534 0.772668 1.44486 0.771733C1.44461 0.771266 1.44446 0.770972 1.4444 0.770853C1.44437 0.770793 1.44436 0.770778 1.44438 0.770806C1.44438 0.77082 1.4444 0.770845 1.44441 0.770881C1.44442 0.770899 1.44444 0.770934 1.44445 0.770943C1.44447 0.770981 1.44449 0.771022 1 1ZM4.47736 6.6977C5.36506 7.70873 6.41113 8.79022 7.6228 9.87722L8.29057 9.13286C7.11125 8.07487 6.09293 7.02208 5.22881 6.03791L4.47736 6.6977ZM11.1266 12.6565C12.2962 13.4727 13.5702 14.2585 14.9518 14.983L15.4162 14.0974C14.0741 13.3936 12.836 12.63 11.6988 11.8365L11.1266 12.6565ZM19.0406 16.8029C20.3891 17.302 21.8177 17.736 23.3282 18.0857L23.5538 17.1115C22.0854 16.7715 20.6975 16.3499 19.3878 15.8651L19.0406 16.8029ZM27.7417 18.8264C28.4704 18.9041 29.2149 18.9623 29.9756 18.9994L30.0244 18.0006C29.2828 17.9644 28.5573 17.9077 27.8478 17.832L27.7417 18.8264ZM29.9756 18.9994C30.8934 19.0442 31.7894 19.0681 32.6639 19.0729L32.6694 18.0729C31.8094 18.0682 30.9277 18.0447 30.0244 18.0006L29.9756 18.9994ZM38.0242 18.8544C39.9194 18.6858 41.6895 18.4272 43.3361 18.1034L43.1431 17.1222C41.5308 17.4392 39.7956 17.6929 37.9356 17.8583L38.0242 18.8544ZM48.5427 16.7621C50.447 16.1471 52.114 15.4618 53.5489 14.7744L53.1168 13.8725C51.7206 14.5414 50.0952 15.2099 48.2353 15.8105L48.5427 16.7621ZM58.2193 12.0657C58.9268 11.5679 59.4559 11.1443 59.8104 10.843C59.9876 10.6923 60.1212 10.5722 60.2115 10.4886C60.2567 10.4468 60.2911 10.4142 60.3148 10.3914C60.3266 10.38 60.3357 10.3711 60.3422 10.3648C60.3454 10.3616 60.348 10.3591 60.3499 10.3572C60.3508 10.3563 60.3516 10.3555 60.3522 10.3549C60.3525 10.3546 60.3528 10.3543 60.353 10.3541C60.3531 10.354 60.3532 10.3539 60.3533 10.3538C60.3534 10.3537 60.3534 10.3537 60.3534 10.3537C60.3535 10.3536 60.3536 10.3536 60 10C59.6464 9.64645 59.6465 9.6464 59.6465 9.64635C59.6466 9.64634 59.6466 9.64629 59.6466 9.64627C59.6467 9.64622 59.6467 9.64618 59.6467 9.64615C59.6468 9.6461 59.6468 9.64608 59.6468 9.64611C59.6467 9.64616 59.6465 9.64637 59.6461 9.64675C59.6454 9.64751 59.6439 9.64892 59.6419 9.65096C59.6377 9.65506 59.6309 9.66171 59.6214 9.67083C59.6024 9.68908 59.5729 9.71718 59.5326 9.75439C59.4521 9.82883 59.3289 9.93972 59.1626 10.0811C58.83 10.3639 58.325 10.7687 57.6439 11.2478L58.2193 12.0657Z" fill="white"/>
</svg>
