<svg width="63" height="71" viewBox="0 0 63 71" fill="none" xmlns="http://www.w3.org/2000/svg">
<path d="M23.9426 26.1119C22.7467 26.1119 21.7601 25.9856 20.9827 25.7332C20.2253 25.4807 19.6871 25.1021 19.3682 24.5972C19.0692 24.0923 18.9795 23.4612 19.0991 22.7039L19.428 20.9289H24.1818L24.0622 21.5205C23.9426 22.1674 23.8828 22.6565 23.8828 22.9879C23.8828 23.3034 24.0423 23.4612 24.3612 23.4612C24.6204 23.4612 24.7998 23.3349 24.8994 23.0825C25.019 22.8301 25.1087 22.5303 25.1685 22.1832L25.4376 20.7869C25.4973 20.4082 25.3578 20.1715 25.019 20.0769C24.7 19.9664 24.1719 19.9112 23.4344 19.9112H22.2683L22.6271 17.9232H23.823C24.1619 17.9232 24.4509 17.9074 24.6901 17.8759C24.9492 17.8443 25.1685 17.7969 25.3479 17.7339C25.6269 17.6392 25.8163 17.5287 25.9159 17.4025C26.0155 17.2605 26.0753 17.1106 26.0953 16.9529L26.3046 15.8642C26.3644 15.5171 26.3743 15.2173 26.3345 14.9649C26.3145 14.7124 26.1751 14.5862 25.9159 14.5862C25.597 14.5862 25.3877 14.7519 25.2881 15.0832C25.1884 15.3987 25.0788 15.8799 24.9592 16.5269L24.8994 16.8819H20.1456L20.4146 15.3435C20.614 14.2075 21.212 13.3555 22.2085 12.7875C23.2251 12.2195 24.6402 11.9355 26.4541 11.9355C28.4074 11.9355 29.7629 12.1801 30.5203 12.6692C31.2976 13.1583 31.5867 13.9393 31.3873 15.0122L31.1481 16.3612C31.0086 17.1501 30.6399 17.7891 30.0419 18.2782C29.4639 18.7515 28.6466 19.0039 27.5902 19.0355C28.547 19.0355 29.2546 19.2643 29.713 19.7219C30.1914 20.1636 30.3608 20.7869 30.2213 21.5915L30.012 22.7039C29.8724 23.5559 29.5635 24.2343 29.0851 24.7392C28.6267 25.2283 27.9789 25.5833 27.1418 25.8042C26.3046 26.0093 25.2382 26.1119 23.9426 26.1119ZM29.8214 25.9699L34.8742 11.9829H41.9003L41.8704 25.9699H36.5186L36.6681 23.9345H35.5619L34.9938 25.9699H29.8214ZM35.8907 22.1122H36.9671L37.7145 14.9412L35.8907 22.1122ZM10.7305 42.8746L13.2419 28.8876H20.1783C21.4939 28.8876 22.4008 29.1164 22.8991 29.574C23.4174 30.0157 23.6067 30.5837 23.4671 31.278L23.0785 33.5973C22.9589 34.2915 22.7397 34.9463 22.4207 35.5616C22.1019 36.1612 21.6534 36.6503 21.0753 37.029C20.5173 37.3918 19.7797 37.5733 18.8628 37.5733H16.6503L15.6936 42.8746H10.7305ZM17.0091 35.538H17.3679C17.5872 35.538 17.7765 35.3723 17.936 35.041C18.1154 34.6938 18.2749 34.0864 18.4143 33.2186L18.4442 32.982C18.5838 32.2088 18.6535 31.6645 18.6535 31.349C18.6735 31.0334 18.5539 30.8756 18.2947 30.8756H17.8463L17.0091 35.538ZM21.865 42.8746L26.9178 28.8876H33.9439L33.914 42.8746H28.5622L28.7117 40.8393H27.6055L27.0374 42.8746H21.865ZM27.9344 39.017H29.0107L29.7582 31.846L27.9344 39.017ZM35.0228 42.8746L37.5343 28.8876H43.5738V36.035L46.145 28.8876H52.1845L49.673 42.8746H45.5171L47.2512 33.124L43.9325 42.8746H40.7633L40.9128 33.124L39.1787 42.8746H35.0228ZM17.9861 59.7794L20.4976 45.7924H25.2514L24.205 51.6381H25.3411L28.4805 45.7924H33.5333L29.4671 52.5137L31.0816 59.7794H25.969L25.072 54.0994H23.7565L22.74 59.7794H17.9861ZM31.9717 59.7794L34.4832 45.7924H38.639L37.473 52.3007L40.7917 45.7924H44.9177L42.4062 59.7794H38.2504L39.2968 53.9811L36.0678 59.7794H31.9717Z" fill="white"/>
<path d="M56.824 2.59973L4.08203 3.41699L5.69969 68.8294L58.4416 68.0122L56.824 2.59973Z" stroke="white"/>
<path d="M60.2837 4.43653L7.64453 1.70605L2.23995 66.991L54.8791 69.7215L60.2837 4.43653Z" stroke="white"/>
</svg>
