<svg width="30" height="30" viewBox="0 0 30 30" fill="none" xmlns="http://www.w3.org/2000/svg">
<path d="M15 30C23.284 30 30 23.284 30 15C30 6.716 23.284 0 15 0C6.716 0 0 6.716 0 15C0 23.284 6.716 30 15 30Z" fill="#039BE5"/>
<path d="M6.86482 14.6748L21.3268 9.09878C21.9988 8.85578 22.5848 9.26178 22.3668 10.2768H22.3688L19.9058 21.8768C19.7238 22.6998 19.2348 22.8998 18.5508 22.5128L14.8008 19.7488L12.9918 21.4908C12.7918 21.6908 12.6238 21.8598 12.2358 21.8598L12.5018 18.0438L19.4518 11.7648C19.7548 11.4988 19.3848 11.3488 18.9858 11.6138L10.3968 17.0208L6.69482 15.8658C5.89082 15.6108 5.87382 15.0628 6.86482 14.6748Z" fill="white"/>
</svg>
