<svg width="30" height="30" viewBox="0 0 30 30" fill="none" xmlns="http://www.w3.org/2000/svg">
<g clip-path="url(#clip0_377_394)">
<path d="M15.004 0H14.996C6.726 0 0 6.728 0 15C0 18.281 1.058 21.323 2.856 23.792L0.986 29.364L6.752 27.521C9.19773 29.1436 12.069 30.0062 15.004 30C23.274 30 30 23.27 30 15C30 6.73 23.274 0 15.004 0Z" fill="#4CAF50"/>
<path d="M23.7322 21.1823C23.3702 22.2043 21.9342 23.0523 20.7882 23.2993C20.0042 23.4663 18.9802 23.5993 15.5342 22.1703C11.1262 20.3443 8.28716 15.8643 8.06616 15.5743C7.85416 15.2843 6.28516 13.2023 6.28516 11.0493C6.28516 8.89733 7.37816 7.84933 7.81916 7.39933C8.18116 7.02933 8.77916 6.86133 9.35216 6.86133C9.53816 6.86133 9.70516 6.87033 9.85516 6.87833C10.2952 6.89633 10.5172 6.92333 10.8072 7.61833C11.1692 8.49033 12.0502 10.6423 12.1552 10.8643C12.2622 11.0853 12.3692 11.3853 12.2192 11.6763C12.0792 11.9763 11.9552 12.1093 11.7342 12.3643C11.5122 12.6193 11.3022 12.8143 11.0812 13.0873C10.8792 13.3263 10.6502 13.5813 10.9052 14.0213C11.1602 14.4523 12.0412 15.8913 13.3392 17.0463C15.0132 18.5363 16.3702 19.0123 16.8562 19.2153C17.2182 19.3653 17.6492 19.3293 17.9142 19.0483C18.2492 18.6863 18.6642 18.0863 19.0852 17.4963C19.3852 17.0723 19.7652 17.0193 20.1622 17.1693C20.5672 17.3103 22.7102 18.3693 23.1512 18.5893C23.5912 18.8103 23.8812 18.9153 23.9892 19.1013C24.0942 19.2863 24.0942 20.1583 23.7322 21.1813V21.1823Z" fill="#FAFAFA"/>
</g>
<defs>
<clipPath id="clip0_377_394">
<rect width="30" height="30" fill="white"/>
</clipPath>
</defs>
</svg>
